<svg width="31" height="31" viewBox="0 0 31 31" fill="none" xmlns="http://www.w3.org/2000/svg">
<path d="M19.6442 9.93204H20.5836L23.2609 7.25477L23.3924 6.1181C21.8587 4.76439 20.0052 3.82402 18.007 3.38581C16.0088 2.9476 13.9319 3.02603 11.9724 3.61368C10.013 4.20132 8.23567 5.2788 6.80841 6.74431C5.38115 8.20983 4.35106 10.015 3.81543 11.9893C4.11369 11.8671 4.44409 11.8472 4.75482 11.933L10.1094 11.0499C10.1094 11.0499 10.3818 10.599 10.5227 10.6272C11.67 9.36715 13.2556 8.59331 14.9548 8.46408C16.654 8.33485 18.3383 8.86 19.663 9.93204H19.6442Z" fill="#EA4335"/>
<path d="M27.0745 11.9893C26.4591 9.72314 25.1956 7.68589 23.439 6.12749L19.6815 9.88506C20.4646 10.5249 21.0922 11.3343 21.5169 12.2521C21.9416 13.1699 22.1524 14.1721 22.1333 15.1832V15.8502C22.5725 15.8502 23.0073 15.9367 23.4131 16.1048C23.8188 16.2728 24.1875 16.5192 24.498 16.8297C24.8086 17.1403 25.0549 17.5089 25.223 17.9147C25.391 18.3204 25.4775 18.7553 25.4775 19.1945C25.4775 19.6336 25.391 20.0685 25.223 20.4742C25.0549 20.88 24.8086 21.2487 24.498 21.5592C24.1875 21.8697 23.8188 22.1161 23.4131 22.2841C23.0073 22.4522 22.5725 22.5387 22.1333 22.5387H15.4448L14.7778 23.2151V27.2263L15.4448 27.8932H22.1333C24.001 27.9078 25.8238 27.3208 27.3321 26.219C28.8403 25.1173 29.9539 23.5593 30.5081 21.7757C31.0623 19.992 31.0276 18.0773 30.4092 16.3148C29.7909 14.5524 28.6216 13.0357 27.0745 11.9893Z" fill="#4285F4"/>
<path d="M8.74682 27.8557H15.4353V22.5011H8.74682C8.27029 22.501 7.79936 22.3985 7.36591 22.2005L6.42651 22.4917L3.73045 25.169L3.49561 26.1084C5.0075 27.2501 6.85232 27.8639 8.74682 27.8557Z" fill="#34A853"/>
<path d="M8.74692 10.4863C6.93467 10.4971 5.17104 11.0737 3.70237 12.1355C2.23371 13.1973 1.13334 14.6913 0.554972 16.4088C-0.0233984 18.1263 -0.0508936 19.9816 0.476327 21.7155C1.00355 23.4494 2.05915 24.9754 3.49571 26.0802L7.37541 22.2005C6.88238 21.9778 6.45075 21.6387 6.11756 21.2125C5.78437 20.7863 5.55956 20.2856 5.46242 19.7533C5.36529 19.2211 5.39872 18.6733 5.55986 18.1568C5.721 17.6404 6.00503 17.1707 6.38758 16.7881C6.77014 16.4056 7.23979 16.1216 7.75625 15.9604C8.27271 15.7993 8.82055 15.7659 9.35277 15.863C9.88499 15.9601 10.3857 16.1849 10.8119 16.5181C11.2382 16.8513 11.5772 17.2829 11.8 17.776L15.6797 13.8963C14.8653 12.8317 13.8158 11.97 12.6131 11.3784C11.4104 10.7868 10.0872 10.4815 8.74692 10.4863Z" fill="#FBBC05"/>
</svg>
