<svg width="31" height="31" viewBox="0 0 31 31" fill="none" xmlns="http://www.w3.org/2000/svg">
<path d="M27.3535 7.77076L19.9079 0.325223C19.7003 0.117634 19.4201 0 19.126 0H4.42868C3.81629 0 3.32153 0.494754 3.32153 1.10714V29.8929C3.32153 30.5052 3.81629 31 4.42868 31H26.5715C27.1839 31 27.6787 30.5052 27.6787 29.8929V8.55614C27.6787 8.26205 27.561 7.97835 27.3535 7.77076ZM25.1253 9.06473H18.6139V2.55335L25.1253 9.06473ZM25.1876 28.5089H5.8126V2.49107H16.2613V9.96428C16.2613 10.3497 16.4144 10.7193 16.6869 10.9918C16.9594 11.2643 17.329 11.4174 17.7144 11.4174H25.1876V28.5089ZM15.2233 19.1674H8.85725C8.70502 19.1674 8.58046 19.292 8.58046 19.4442V21.1049C8.58046 21.2571 8.70502 21.3817 8.85725 21.3817H15.2233C15.3756 21.3817 15.5001 21.2571 15.5001 21.1049V19.4442C15.5001 19.292 15.3756 19.1674 15.2233 19.1674ZM8.58046 14.7388V16.3996C8.58046 16.5518 8.70502 16.6763 8.85725 16.6763H22.143C22.2952 16.6763 22.4197 16.5518 22.4197 16.3996V14.7388C22.4197 14.5866 22.2952 14.4621 22.143 14.4621H8.85725C8.70502 14.4621 8.58046 14.5866 8.58046 14.7388Z" fill="black"/>
</svg>
