<svg width="31" height="31" viewBox="0 0 31 31" fill="none" xmlns="http://www.w3.org/2000/svg">
<path d="M16.1679 17.6589L16.1782 17.6105C16.3789 16.7836 16.6315 15.7526 16.4343 14.8184C16.3028 14.0815 15.7596 13.7943 15.296 13.7735C14.7493 13.7493 14.2615 14.0607 14.1404 14.514C13.912 15.3443 14.1162 16.4791 14.4898 17.9253C14.0193 19.0463 13.2685 20.6759 12.7184 21.6446C11.6943 22.174 10.3208 22.9905 10.1166 24.0215C10.0751 24.2118 10.1235 24.454 10.2377 24.672C10.3657 24.9142 10.5699 25.101 10.8086 25.191C10.9124 25.229 11.0369 25.2602 11.1822 25.2602C11.7912 25.2602 12.7772 24.7689 14.092 22.5131C14.2926 22.4473 14.5002 22.3781 14.7009 22.3089C15.642 21.9906 16.6176 21.6585 17.4999 21.5097C18.4756 22.0321 19.5862 22.3677 20.3404 22.3677C21.0877 22.3677 21.3818 21.9249 21.4925 21.6585C21.6863 21.1914 21.5929 20.6032 21.278 20.2884C20.8213 19.8386 19.7107 19.721 17.9808 19.9355C17.1297 19.4165 16.5726 18.7107 16.1679 17.6589ZM12.3724 22.9144C11.8915 23.6133 11.5282 23.9627 11.331 24.115C11.5628 23.6894 12.0161 23.2396 12.3724 22.9144ZM15.4032 14.7665C15.5831 15.0744 15.5589 16.0051 15.4205 16.4757C15.251 15.7872 15.2268 14.8115 15.3271 14.6973C15.3548 14.7008 15.379 14.7215 15.4032 14.7665ZM15.3479 18.9356C15.7181 19.5757 16.1852 20.1258 16.7007 20.534C15.9533 20.7036 15.2718 20.9838 14.6628 21.2329C14.5175 21.2917 14.3757 21.3506 14.2373 21.4059C14.6974 20.5721 15.0815 19.6276 15.3479 18.9356ZM20.7314 21.2018C20.7348 21.2087 20.7383 21.2191 20.7175 21.2329H20.7106L20.7037 21.2433C20.676 21.2606 20.3923 21.4267 19.171 20.9458C20.5757 20.88 20.7279 21.1983 20.7314 21.2018ZM27.3535 7.77076L19.9079 0.325223C19.7003 0.117634 19.4201 0 19.126 0H4.42868C3.81629 0 3.32153 0.494754 3.32153 1.10714V29.8929C3.32153 30.5052 3.81629 31 4.42868 31H26.5715C27.1839 31 27.6787 30.5052 27.6787 29.8929V8.55614C27.6787 8.26205 27.561 7.97835 27.3535 7.77076ZM25.1253 9.06473H18.6139V2.55335L25.1253 9.06473ZM25.1876 28.5089H5.8126V2.49107H16.2613V9.96428C16.2613 10.3497 16.4144 10.7193 16.6869 10.9918C16.9594 11.2643 17.329 11.4174 17.7144 11.4174H25.1876V28.5089Z" fill="black"/>
</svg>
