<svg width="31" height="31" viewBox="0 0 31 31" fill="none" xmlns="http://www.w3.org/2000/svg">
<path d="M16.9221 15.3997L14.2304 18.8318L12.8084 17.0189C12.7825 16.9858 12.7494 16.959 12.7116 16.9406C12.6739 16.9222 12.6324 16.9127 12.5904 16.9127C12.5484 16.9127 12.5069 16.9222 12.4692 16.9406C12.4314 16.959 12.3983 16.9858 12.3724 17.0189L8.91952 21.4198C8.88758 21.4605 8.86776 21.5095 8.86233 21.561C8.85689 21.6126 8.86607 21.6646 8.88881 21.7111C8.91155 21.7577 8.94693 21.7969 8.9909 21.8243C9.03488 21.8517 9.08568 21.8662 9.13749 21.8661H21.8662C22.098 21.8661 22.226 21.5997 22.0841 21.4198L17.3615 15.3997C17.3353 15.3665 17.3019 15.3398 17.2638 15.3214C17.2258 15.303 17.1841 15.2934 17.1418 15.2934C17.0995 15.2934 17.0578 15.303 17.0198 15.3214C16.9817 15.3398 16.9483 15.3665 16.9221 15.3997ZM10.2412 13.0781C10.2412 13.4452 10.387 13.7972 10.6465 14.0567C10.9061 14.3162 11.2581 14.4621 11.6251 14.4621C11.9921 14.4621 12.3442 14.3162 12.6037 14.0567C12.8632 13.7972 13.009 13.4452 13.009 13.0781C13.009 12.7111 12.8632 12.3591 12.6037 12.0995C12.3442 11.84 11.9921 11.6942 11.6251 11.6942C11.2581 11.6942 10.9061 11.84 10.6465 12.0995C10.387 12.3591 10.2412 12.7111 10.2412 13.0781ZM27.3535 7.77076L19.9079 0.325223C19.7003 0.117634 19.4201 0 19.126 0H4.42868C3.81629 0 3.32153 0.494754 3.32153 1.10714V29.8929C3.32153 30.5052 3.81629 31 4.42868 31H26.5715C27.1839 31 27.6787 30.5052 27.6787 29.8929V8.55614C27.6787 8.26205 27.561 7.97835 27.3535 7.77076ZM25.1253 9.06473H18.6139V2.55335L25.1253 9.06473ZM25.1876 28.5089H5.8126V2.49107H16.2613V9.96428C16.2613 10.3497 16.4144 10.7193 16.6869 10.9918C16.9594 11.2643 17.329 11.4174 17.7144 11.4174H25.1876V28.5089Z" fill="black"/>
</svg>
