<svg width="20" height="20" viewBox="0 0 20 20" fill="none" xmlns="http://www.w3.org/2000/svg">
<path d="M10 11.375C7.86421 11.375 6.04921 12.7133 5.31587 14.5833H14.6842C13.9509 12.7133 12.1359 11.375 10 11.375ZM6.16837 9.99998L7.14004 9.02831L8.11171 9.99998L9.08337 9.02831L8.11171 8.05665L9.08337 7.08498L8.11171 6.11331L7.14004 7.08498L6.16837 6.11331L5.19671 7.08498L6.16837 8.05665L5.19671 9.02831L6.16837 9.99998ZM9.99087 0.833313C4.93087 0.833313 0.833374 4.93081 0.833374 9.99998C0.833374 15.0691 4.93087 19.1666 9.99087 19.1666C15.0509 19.1666 19.1667 15.0691 19.1667 9.99998C19.1667 4.93081 15.06 0.833313 9.99087 0.833313ZM10 17.3333C5.94837 17.3333 2.66671 14.0516 2.66671 9.99998C2.66671 5.94831 5.94837 2.66665 10 2.66665C14.0517 2.66665 17.3334 5.94831 17.3334 9.99998C17.3334 14.0516 14.0517 17.3333 10 17.3333ZM13.8317 6.11331L12.86 7.08498L11.8884 6.11331L10.9167 7.08498L11.8884 8.05665L10.9167 9.02831L11.8884 9.99998L12.86 9.02831L13.8317 9.99998L14.8034 9.02831L13.8317 8.05665L14.8034 7.08498L13.8317 6.11331Z" fill="#EF1351"/>
</svg>
