<svg width="21" height="21" viewBox="0 0 21 21" fill="none" xmlns="http://www.w3.org/2000/svg">
<path d="M13.5625 9.625C14.2874 9.625 14.875 9.03737 14.875 8.3125C14.875 7.58763 14.2874 7 13.5625 7C12.8376 7 12.25 7.58763 12.25 8.3125C12.25 9.03737 12.8376 9.625 13.5625 9.625Z" fill="#1AA499"/>
<path d="M7.4375 9.625C8.16237 9.625 8.75 9.03737 8.75 8.3125C8.75 7.58763 8.16237 7 7.4375 7C6.71263 7 6.125 7.58763 6.125 8.3125C6.125 9.03737 6.71263 9.625 7.4375 9.625Z" fill="#1AA499"/>
<path d="M10.5 14C9.205 14 8.09375 13.2913 7.48125 12.25H6.02C6.72 14.0437 8.46125 15.3125 10.5 15.3125C12.5387 15.3125 14.28 14.0437 14.98 12.25H13.5188C12.9062 13.2913 11.795 14 10.5 14ZM10.4913 1.75C5.66125 1.75 1.75 5.67 1.75 10.5C1.75 15.33 5.66125 19.25 10.4913 19.25C15.33 19.25 19.25 15.33 19.25 10.5C19.25 5.67 15.33 1.75 10.4913 1.75ZM10.5 17.5C6.6325 17.5 3.5 14.3675 3.5 10.5C3.5 6.6325 6.6325 3.5 10.5 3.5C14.3675 3.5 17.5 6.6325 17.5 10.5C17.5 14.3675 14.3675 17.5 10.5 17.5Z" fill="#1AA499"/>
</svg>
