<svg width="21" height="21" viewBox="0 0 21 21" fill="none" xmlns="http://www.w3.org/2000/svg">
<path d="M13.7856 12.4731H13.0944L12.8494 12.2369C13.7069 11.2394 14.2231 9.94438 14.2231 8.53563C14.2231 5.39438 11.6769 2.84813 8.53564 2.84813C5.39439 2.84813 2.84814 5.39438 2.84814 8.53563C2.84814 11.6769 5.39439 14.2231 8.53564 14.2231C9.94439 14.2231 11.2394 13.7069 12.2369 12.8494L12.4731 13.0944V13.7856L16.8481 18.1519L18.1519 16.8481L13.7856 12.4731ZM8.53564 12.4731C6.35689 12.4731 4.59814 10.7144 4.59814 8.53563C4.59814 6.35688 6.35689 4.59813 8.53564 4.59813C10.7144 4.59813 12.4731 6.35688 12.4731 8.53563C12.4731 10.7144 10.7144 12.4731 8.53564 12.4731Z" fill="#333333"/>
</svg>
