<svg width="21" height="21" viewBox="0 0 21 21" fill="none" xmlns="http://www.w3.org/2000/svg">
<path d="M12.25 5.6875V3.9375H8.75V5.6875H12.25ZM3.5 7.4375V17.0625H17.5V7.4375H3.5ZM17.5 5.6875C18.4713 5.6875 19.25 6.46625 19.25 7.4375V17.0625C19.25 18.0337 18.4713 18.8125 17.5 18.8125H3.5C2.52875 18.8125 1.75 18.0337 1.75 17.0625L1.75875 7.4375C1.75875 6.46625 2.52875 5.6875 3.5 5.6875H7V3.9375C7 2.96625 7.77875 2.1875 8.75 2.1875H12.25C13.2212 2.1875 14 2.96625 14 3.9375V5.6875H17.5Z" fill="#333333"/>
</svg>
