<svg width="21" height="21" viewBox="0 0 21 21" fill="none" xmlns="http://www.w3.org/2000/svg">
<path d="M10.875 6.25C12.0438 6.25 13 5.29375 13 4.125C13 2.95625 12.0438 2 10.875 2C9.70625 2 8.75 2.95625 8.75 4.125C8.75 5.29375 9.70625 6.25 10.875 6.25ZM10.875 8.375C9.70625 8.375 8.75 9.33125 8.75 10.5C8.75 11.6687 9.70625 12.625 10.875 12.625C12.0438 12.625 13 11.6687 13 10.5C13 9.33125 12.0438 8.375 10.875 8.375ZM10.875 14.75C9.70625 14.75 8.75 15.7063 8.75 16.875C8.75 18.0438 9.70625 19 10.875 19C12.0438 19 13 18.0438 13 16.875C13 15.7063 12.0438 14.75 10.875 14.75Z" fill="#3B24E8"/>
</svg>
