<svg width="40" height="41" viewBox="0 0 40 41" fill="none" xmlns="http://www.w3.org/2000/svg">
<path d="M34 18V37C34 37.5304 33.7893 38.0391 33.4142 38.4142C33.0391 38.7893 32.5304 39 32 39H4C3.46957 39 2.96086 38.7893 2.58579 38.4142C2.21071 38.0391 2 37.5304 2 37V9C2 8.46957 2.21071 7.96086 2.58579 7.58579C2.96086 7.21071 3.46957 7 4 7H22.364" stroke="#6D788D" stroke-opacity="0.5" strokeWidth="4" stroke-miterlimit="10" strokeLinecap="round" strokeLinejoin="round"/>
<path d="M30 7.00187H38M33.995 2.79688V10.7969M8 28.0319L14 20.0019L17 23.0019L20.5 17.5019L28 28.0319H8Z" stroke="#6D788D" stroke-opacity="0.5" strokeWidth="4" stroke-miterlimit="10" strokeLinecap="round" strokeLinejoin="round"/>
</svg>
