<svg width="21" height="21" viewBox="0 0 21 21" fill="none" xmlns="http://www.w3.org/2000/svg">
<path d="M15.8438 2.27344C14.3953 2.27344 13.2188 3.45 13.2188 4.89844C13.2188 6.07266 13.9945 7.06875 15.0586 7.40391V9.65156L6 12.6188V5.95547C7.03594 5.60391 7.78125 4.62188 7.78125 3.46875C7.78125 2.02031 6.60469 0.84375 5.15625 0.84375C3.70781 0.84375 2.53125 2.02031 2.53125 3.46875C2.53125 4.62188 3.27656 5.60156 4.3125 5.95547V15.0469C3.27656 15.3984 2.53125 16.3805 2.53125 17.5336C2.53125 18.982 3.70781 20.1586 5.15625 20.1586C6.60469 20.1586 7.78125 18.982 7.78125 17.5336C7.78125 16.3805 7.03594 15.4008 6 15.0469V14.3953L15.9258 11.1445C16.1641 11.067 16.3718 10.9159 16.5187 10.7129C16.6657 10.5099 16.7445 10.2655 16.7438 10.0148V7.36406C17.7492 6.99375 18.4688 6.02813 18.4688 4.89844C18.4688 3.45 17.2922 2.27344 15.8438 2.27344ZM4.03125 3.46875C4.03726 3.17436 4.15843 2.89405 4.36875 2.68798C4.57907 2.4819 4.8618 2.36648 5.15625 2.36648C5.4507 2.36648 5.73343 2.4819 5.94375 2.68798C6.15407 2.89405 6.27524 3.17436 6.28125 3.46875C6.27524 3.76314 6.15407 4.04345 5.94375 4.24952C5.73343 4.4556 5.4507 4.57102 5.15625 4.57102C4.8618 4.57102 4.57907 4.4556 4.36875 4.24952C4.15843 4.04345 4.03726 3.76314 4.03125 3.46875ZM6.28125 17.5313C6.27524 17.8256 6.15407 18.106 5.94375 18.312C5.73343 18.5181 5.4507 18.6335 5.15625 18.6335C4.8618 18.6335 4.57907 18.5181 4.36875 18.312C4.15843 18.106 4.03726 17.8256 4.03125 17.5313C4.03726 17.2369 4.15843 16.9566 4.36875 16.7505C4.57907 16.5444 4.8618 16.429 5.15625 16.429C5.4507 16.429 5.73343 16.5444 5.94375 16.7505C6.15407 16.9566 6.27524 17.2369 6.28125 17.5313ZM15.8438 6.02344C15.5494 6.01743 15.2691 5.89626 15.063 5.68594C14.8569 5.47561 14.7415 5.19289 14.7415 4.89844C14.7415 4.60398 14.8569 4.32126 15.063 4.11094C15.2691 3.90061 15.5494 3.77945 15.8438 3.77344C16.1381 3.77945 16.4185 3.90061 16.6245 4.11094C16.8306 4.32126 16.946 4.60398 16.946 4.89844C16.946 5.19289 16.8306 5.47561 16.6245 5.68594C16.4185 5.89626 16.1381 6.01743 15.8438 6.02344Z" fill="#333333"/>
</svg>
