<svg width="21" height="21" viewBox="0 0 21 21" fill="none" xmlns="http://www.w3.org/2000/svg">
<path d="M10.5 5.6875C13.8162 5.6875 16.7737 7.55125 18.2175 10.5C16.7737 13.4487 13.8162 15.3125 10.5 15.3125C7.18375 15.3125 4.22625 13.4487 2.7825 10.5C4.22625 7.55125 7.18375 5.6875 10.5 5.6875ZM10.5 3.9375C6.125 3.9375 2.38875 6.65875 0.875 10.5C2.38875 14.3412 6.125 17.0625 10.5 17.0625C14.875 17.0625 18.6112 14.3412 20.125 10.5C18.6112 6.65875 14.875 3.9375 10.5 3.9375ZM10.5 8.3125C11.7075 8.3125 12.6875 9.2925 12.6875 10.5C12.6875 11.7075 11.7075 12.6875 10.5 12.6875C9.2925 12.6875 8.3125 11.7075 8.3125 10.5C8.3125 9.2925 9.2925 8.3125 10.5 8.3125ZM10.5 6.5625C8.33 6.5625 6.5625 8.33 6.5625 10.5C6.5625 12.67 8.33 14.4375 10.5 14.4375C12.67 14.4375 14.4375 12.67 14.4375 10.5C14.4375 8.33 12.67 6.5625 10.5 6.5625Z" fill="#333333"/>
</svg>
