<svg width="21" height="21" viewBox="0 0 21 21" fill="none" xmlns="http://www.w3.org/2000/svg">
<path d="M10.5 1.75C5.67 1.75 1.75 5.67 1.75 10.5C1.75 15.33 5.67 19.25 10.5 19.25C15.33 19.25 19.25 15.33 19.25 10.5C19.25 5.67 15.33 1.75 10.5 1.75ZM11.375 16.625H9.625V14.875H11.375V16.625ZM13.1862 9.84375L12.3988 10.6488C11.7688 11.2875 11.375 11.8125 11.375 13.125H9.625V12.6875C9.625 11.725 10.0188 10.85 10.6488 10.2113L11.7337 9.10875C12.0575 8.79375 12.25 8.35625 12.25 7.875C12.25 6.9125 11.4625 6.125 10.5 6.125C9.5375 6.125 8.75 6.9125 8.75 7.875H7C7 5.94125 8.56625 4.375 10.5 4.375C12.4338 4.375 14 5.94125 14 7.875C14 8.645 13.685 9.345 13.1862 9.84375Z" fill="#333333"/>
</svg>
