<svg width="21" height="21" viewBox="0 0 21 21" fill="none" xmlns="http://www.w3.org/2000/svg">
<path d="M16.625 2.625H4.375C3.4125 2.625 2.625 3.4125 2.625 4.375V16.625C2.625 17.5875 3.40375 18.375 4.375 18.375H16.625C17.5875 18.375 18.375 17.5875 18.375 16.625V4.375C18.375 3.4125 17.5875 2.625 16.625 2.625ZM16.625 16.625H4.375V14H7.49C8.09375 15.0413 9.21375 15.75 10.5087 15.75C11.8038 15.75 12.915 15.0413 13.5275 14H16.625V16.625ZM16.625 12.25H12.2587C12.2587 13.2125 11.4713 14 10.5087 14C9.54625 14 8.75875 13.2125 8.75875 12.25H4.375V4.375H16.625V12.25Z" fill="#333333"/>
</svg>
