<svg width="21" height="21" viewBox="0 0 21 21" fill="none" xmlns="http://www.w3.org/2000/svg">
<path d="M15.4262 13.2388L17.0625 2.625H13.5625V1.75H10.0625V2.625H5.6875C4.725 2.625 3.9375 3.4125 3.9375 4.375V7.875C3.9375 8.8375 4.725 9.625 5.6875 9.625H7.63875L8.19875 13.2388C7.21 14.0437 6.5625 15.2513 6.5625 16.625V17.5C6.5625 18.4625 7.35 19.25 8.3125 19.25H15.3125C16.275 19.25 17.0625 18.4625 17.0625 17.5V16.625C17.0625 15.2513 16.415 14.0437 15.4262 13.2388ZM5.6875 7.875V4.375H6.83375L7.37625 7.875H5.6875ZM15.0238 4.375L13.8162 12.25H9.8175L8.60125 4.375H15.0238ZM15.3125 17.5H8.3125V16.625C8.3125 15.1812 9.49375 14 10.9375 14H12.6875C14.1313 14 15.3125 15.1812 15.3125 16.625V17.5Z" fill="#333333"/>
<path d="M11.8125 16.625C12.2957 16.625 12.6875 16.2332 12.6875 15.75C12.6875 15.2668 12.2957 14.875 11.8125 14.875C11.3293 14.875 10.9375 15.2668 10.9375 15.75C10.9375 16.2332 11.3293 16.625 11.8125 16.625Z" fill="#333333"/>
</svg>
