<svg width="21" height="21" viewBox="0 0 21 21" fill="none" xmlns="http://www.w3.org/2000/svg">
<path d="M18.375 12.25C18.375 11.7688 17.9812 11.375 17.5 11.375H15.75V13.125H17.5C17.9812 13.125 18.375 12.7312 18.375 12.25Z" fill="#333333"/>
<path d="M17.5 14.875H15.75V16.625H17.5C17.9812 16.625 18.375 16.2312 18.375 15.75C18.375 15.2688 17.9812 14.875 17.5 14.875Z" fill="#333333"/>
<path d="M10.5 12.25H8.75V15.75H10.5C10.5 16.7125 11.2875 17.5 12.25 17.5H14.875V10.5H12.25C11.2875 10.5 10.5 11.2875 10.5 12.25Z" fill="#333333"/>
<path d="M4.375 11.375C4.375 10.4125 5.1625 9.625 6.125 9.625H7.4375C9.12625 9.625 10.5 8.25125 10.5 6.5625C10.5 4.87375 9.12625 3.5 7.4375 3.5H4.375C3.89375 3.5 3.5 3.89375 3.5 4.375C3.5 4.85625 3.89375 5.25 4.375 5.25H7.4375C8.16375 5.25 8.75 5.83625 8.75 6.5625C8.75 7.28875 8.16375 7.875 7.4375 7.875H6.125C4.19125 7.875 2.625 9.44125 2.625 11.375C2.625 13.3088 4.19125 14.875 6.125 14.875H7.875V13.125H6.125C5.1625 13.125 4.375 12.3375 4.375 11.375Z" fill="#333333"/>
</svg>
