<svg width="21" height="21" viewBox="0 0 21 21" fill="none" xmlns="http://www.w3.org/2000/svg">
<path d="M10.9375 5.25C9.975 5.25 9.1875 4.4625 9.1875 3.5C9.1875 2.5375 9.975 1.75 10.9375 1.75C11.9 1.75 12.6875 2.5375 12.6875 3.5C12.6875 4.4625 11.9 5.25 10.9375 5.25ZM15.3125 1.75H17.0625C17.0625 4.1125 16.2488 5.60875 15.05 6.5625C14.6125 6.9125 14.0875 7.175 13.5625 7.35V19.25H11.8125V14H10.0625V19.25H8.3125V8.8375C8.05 8.925 7.875 9.0125 7.7875 9.1C7.32375 9.45875 6.5625 10.0013 6.5625 12.25H4.8125C4.8125 10.4475 5.11875 8.9425 6.65875 7.62125C7.62125 6.83375 9.1875 6.125 10.9375 6.125C12.6875 6.125 13.2825 5.7225 13.9825 5.1975C14.4025 4.85625 15.3125 4.165 15.3125 1.75ZM3.9375 14H6.5625V19.25H3.9375V14Z" fill="#333333"/>
</svg>
