<svg width="21" height="21" viewBox="0 0 21 21" fill="none" xmlns="http://www.w3.org/2000/svg">
<path d="M2.625 7.875V13.125H6.125L10.5 17.5V3.5L6.125 7.875H2.625ZM8.75 7.72625V13.2737L6.85125 11.375H4.375V9.625H6.85125L8.75 7.72625ZM14.4375 10.5C14.4375 8.95125 13.545 7.62125 12.25 6.97375V14.0175C13.545 13.3787 14.4375 12.0487 14.4375 10.5ZM12.25 2.82625V4.62875C14.7788 5.38125 16.625 7.72625 16.625 10.5C16.625 13.2737 14.7788 15.6187 12.25 16.3712V18.1737C15.7587 17.3775 18.375 14.245 18.375 10.5C18.375 6.755 15.7587 3.6225 12.25 2.82625Z" fill="#333333"/>
</svg>
