<svg width="21" height="21" viewBox="0 0 21 21" fill="none" xmlns="http://www.w3.org/2000/svg">
<path d="M12.0005 8.12874C12.0005 7.64749 12.3943 7.25374 12.8755 7.25374H15.5005C15.9818 7.25374 16.3755 7.64749 16.3755 8.12874V9.00374H15.063V8.56624H13.313V9.44124L12.0005 8.12874ZM15.063 11.1912L16.1218 12.25C16.2793 12.0837 16.3755 11.865 16.3755 11.6287V10.7537H15.063V11.1912ZM8.3518 4.62874H17.2505V13.5275L18.983 15.26C18.983 15.2162 19.0005 15.1725 19.0005 15.12V4.62874C19.0005 3.66624 18.213 2.87874 17.2505 2.87874H6.6018L8.3518 4.62874ZM17.933 19.1625L15.6493 16.8787H5.00055C4.0293 16.8787 3.25055 16.0912 3.25055 15.1287V4.62874C3.25055 4.58499 3.26805 4.54124 3.26805 4.49749L1.8418 3.07124L3.07555 1.83749L19.158 17.92L17.933 19.1625ZM7.18805 11.1912H8.93805V10.7537H9.5243L7.3368 8.56624H7.18805V11.1912ZM13.8993 15.1287L10.2505 11.48V11.6287C10.2505 12.11 9.8568 12.5037 9.37555 12.5037H6.75055C6.2693 12.5037 5.87555 12.11 5.87555 11.6287V8.12874C5.87555 7.84874 6.01555 7.61249 6.22555 7.44624L5.00055 6.22999V15.1287H13.8993Z" fill="#333333"/>
</svg>
