<svg width="21" height="21" viewBox="0 0 21 21" fill="none" xmlns="http://www.w3.org/2000/svg">
<path d="M10.5 11.8125C8.46125 11.8125 6.72875 13.09 6.02875 14.875H14.9713C14.2713 13.09 12.5387 11.8125 10.5 11.8125ZM6.8425 10.5L7.77 9.5725L8.6975 10.5L9.625 9.5725L8.6975 8.645L9.625 7.7175L8.6975 6.79L7.77 7.7175L6.8425 6.79L5.915 7.7175L6.8425 8.645L5.915 9.5725L6.8425 10.5ZM10.4913 1.75C5.66125 1.75 1.75 5.66125 1.75 10.5C1.75 15.3387 5.66125 19.25 10.4913 19.25C15.3212 19.25 19.25 15.3387 19.25 10.5C19.25 5.66125 15.33 1.75 10.4913 1.75ZM10.5 17.5C6.6325 17.5 3.5 14.3675 3.5 10.5C3.5 6.6325 6.6325 3.5 10.5 3.5C14.3675 3.5 17.5 6.6325 17.5 10.5C17.5 14.3675 14.3675 17.5 10.5 17.5ZM14.1575 6.79L13.23 7.7175L12.3025 6.79L11.375 7.7175L12.3025 8.645L11.375 9.5725L12.3025 10.5L13.23 9.5725L14.1575 10.5L15.085 9.5725L14.1575 8.645L15.085 7.7175L14.1575 6.79Z" fill="#EF1351"/>
</svg>
