<svg width="21" height="21" viewBox="0 0 21 21" fill="none" xmlns="http://www.w3.org/2000/svg">
<path d="M3.9375 5.25H5.6875V7.875H14.4375V5.25H16.1875V10.5H17.9375V5.25C17.9375 4.2875 17.15 3.5 16.1875 3.5H12.53C12.1625 2.485 11.2 1.75 10.0625 1.75C8.925 1.75 7.9625 2.485 7.595 3.5H3.9375C2.975 3.5 2.1875 4.2875 2.1875 5.25V17.5C2.1875 18.4625 2.975 19.25 3.9375 19.25H8.3125V17.5H3.9375V5.25ZM10.0625 3.5C10.5437 3.5 10.9375 3.89375 10.9375 4.375C10.9375 4.85625 10.5437 5.25 10.0625 5.25C9.58125 5.25 9.1875 4.85625 9.1875 4.375C9.1875 3.89375 9.58125 3.5 10.0625 3.5Z" fill="#333333"/>
<path d="M15.3212 12.25L14.0788 13.4837L15.4613 14.8663H10.0625V16.6163H15.4613L14.0788 18.0075L15.3212 19.2412L18.8125 15.7413L15.3212 12.25Z" fill="#333333"/>
</svg>
