<svg width="21" height="21" viewBox="0 0 21 21" fill="none" xmlns="http://www.w3.org/2000/svg">
<path d="M10.5 5.25V1.75L6.125 6.125L10.5 10.5V7C13.3962 7 15.75 9.35375 15.75 12.25C15.75 15.1462 13.3962 17.5 10.5 17.5C7.60375 17.5 5.25 15.1462 5.25 12.25H3.5C3.5 16.1175 6.6325 19.25 10.5 19.25C14.3675 19.25 17.5 16.1175 17.5 12.25C17.5 8.3825 14.3675 5.25 10.5 5.25ZM9.5375 14.875H8.79375V12.0225L7.91 12.2937V11.69L9.45875 11.1388H9.5375V14.875ZM13.2825 13.335C13.2825 13.615 13.2563 13.86 13.195 14.0525C13.1337 14.245 13.0463 14.42 12.9412 14.5513C12.8363 14.6825 12.6962 14.7788 12.5475 14.84C12.3988 14.9012 12.2238 14.9275 12.0312 14.9275C11.8387 14.9275 11.6725 14.9012 11.515 14.84C11.3575 14.7788 11.2262 14.6825 11.1125 14.5513C10.9987 14.42 10.9113 14.2538 10.85 14.0525C10.7888 13.8513 10.7537 13.615 10.7537 13.335V12.6875C10.7537 12.4075 10.78 12.1625 10.8413 11.97C10.9025 11.7775 10.99 11.6025 11.095 11.4712C11.2 11.34 11.34 11.2437 11.4887 11.1825C11.6375 11.1213 11.8125 11.095 12.005 11.095C12.1975 11.095 12.3638 11.1213 12.5213 11.1825C12.6788 11.2437 12.81 11.34 12.9237 11.4712C13.0375 11.6025 13.125 11.7688 13.1863 11.97C13.2475 12.1713 13.2825 12.4075 13.2825 12.6875V13.335ZM12.5387 12.5825C12.5387 12.4163 12.53 12.2762 12.5037 12.1625C12.4775 12.0487 12.4425 11.9613 12.3988 11.8913C12.355 11.8212 12.3025 11.7688 12.2325 11.7425C12.1625 11.7163 12.0925 11.6987 12.0138 11.6987C11.935 11.6987 11.8563 11.7163 11.795 11.7425C11.7338 11.7688 11.6725 11.8212 11.6287 11.8913C11.585 11.9613 11.55 12.0487 11.5238 12.1625C11.4975 12.2762 11.4887 12.4163 11.4887 12.5825V13.4313C11.4887 13.5975 11.4975 13.7375 11.5238 13.8512C11.55 13.965 11.585 14.0612 11.6287 14.1312C11.6725 14.2013 11.725 14.2537 11.795 14.28C11.865 14.3062 11.935 14.3237 12.0138 14.3237C12.0925 14.3237 12.1713 14.3062 12.2325 14.28C12.2938 14.2537 12.355 14.2013 12.3988 14.1312C12.4425 14.0612 12.4775 13.965 12.495 13.8512C12.5125 13.7375 12.53 13.5975 12.53 13.4313V12.5825H12.5387Z" fill="#333333"/>
</svg>
