<svg width="21" height="21" viewBox="0 0 21 21" fill="none" xmlns="http://www.w3.org/2000/svg">
<path d="M10.5 5.22812C13.8162 5.22812 16.7737 7.09187 18.2175 10.0406C17.7013 11.1081 16.975 12.0269 16.1087 12.7706L17.3425 14.0044C18.5588 12.9281 19.5212 11.5806 20.125 10.0406C18.6112 6.19937 14.875 3.47812 10.5 3.47812C9.38875 3.47812 8.32125 3.65312 7.315 3.97687L8.75875 5.42062C9.3275 5.30687 9.905 5.22812 10.5 5.22812ZM9.56375 6.22562L11.375 8.03687C11.8737 8.25562 12.2762 8.65812 12.495 9.15687L14.3063 10.9681C14.3763 10.6706 14.4288 10.3556 14.4288 10.0319C14.4375 7.86187 12.67 6.10312 10.5 6.10312C10.1763 6.10312 9.87 6.14687 9.56375 6.22562ZM1.75875 3.36437L4.10375 5.70937C2.6775 6.82937 1.54875 8.31687 0.875 10.0406C2.38875 13.8819 6.125 16.6031 10.5 16.6031C11.83 16.6031 13.1075 16.3494 14.28 15.8856L17.2725 18.8781L18.5063 17.6444L2.9925 2.12187L1.75875 3.36437ZM8.32125 9.92687L10.605 12.2106C10.57 12.2194 10.535 12.2281 10.5 12.2281C9.2925 12.2281 8.3125 11.2481 8.3125 10.0406C8.3125 9.99687 8.32125 9.97062 8.32125 9.92687ZM5.34625 6.95187L6.8775 8.48312C6.67625 8.96437 6.5625 9.48937 6.5625 10.0406C6.5625 12.2106 8.33 13.9781 10.5 13.9781C11.0513 13.9781 11.5763 13.8644 12.0487 13.6631L12.9062 14.5206C12.1362 14.7306 11.3313 14.8531 10.5 14.8531C7.18375 14.8531 4.22625 12.9894 2.7825 10.0406C3.395 8.78937 4.2875 7.75687 5.34625 6.95187Z" fill="#333333"/>
</svg>
