<svg width="21" height="21" viewBox="0 0 21 21" fill="none" xmlns="http://www.w3.org/2000/svg">
<path d="M16.625 3.5H4.375C3.40375 3.5 2.625 4.2875 2.625 5.25V15.75C2.625 16.7125 3.40375 17.5 4.375 17.5H16.625C17.5875 17.5 18.375 16.7125 18.375 15.75V5.25C18.375 4.2875 17.5875 3.5 16.625 3.5ZM16.625 15.75H4.375V5.25H16.625V15.75ZM6.125 13.125H8.75C9.23125 13.125 9.625 12.7312 9.625 12.25V11.375H8.3125V11.8125H6.5625V9.1875H8.3125V9.625H9.625V8.75C9.625 8.26875 9.23125 7.875 8.75 7.875H6.125C5.64375 7.875 5.25 8.26875 5.25 8.75V12.25C5.25 12.7312 5.64375 13.125 6.125 13.125ZM12.25 13.125H14.875C15.3562 13.125 15.75 12.7312 15.75 12.25V11.375H14.4375V11.8125H12.6875V9.1875H14.4375V9.625H15.75V8.75C15.75 8.26875 15.3562 7.875 14.875 7.875H12.25C11.7688 7.875 11.375 8.26875 11.375 8.75V12.25C11.375 12.7312 11.7688 13.125 12.25 13.125Z" fill="#333333"/>
</svg>
