<svg width="21" height="21" viewBox="0 0 21 21" fill="none" xmlns="http://www.w3.org/2000/svg">
<path d="M5.56055 16.4325L5.7793 18.375L7.1968 17.0275L9.62055 10.3775C9.02555 10.2287 8.50055 9.93125 8.0718 9.52L5.56055 16.4325Z" fill="#333333"/>
<path d="M12.9193 9.52C12.4905 9.93125 11.9568 10.2287 11.3705 10.3775L13.7943 17.0275L15.2118 18.375L15.4393 16.4325L12.9193 9.52Z" fill="#333333"/>
<path d="M13.1205 7C13.1205 5.8625 12.3855 4.9 11.3705 4.5325V2.625H9.62055V4.5325C8.60555 4.9 7.87055 5.8625 7.87055 7C7.87055 8.4525 9.04305 9.625 10.4955 9.625C11.948 9.625 13.1205 8.4525 13.1205 7ZM10.4955 7.875C10.0143 7.875 9.62055 7.48125 9.62055 7C9.62055 6.51875 10.0143 6.125 10.4955 6.125C10.9768 6.125 11.3705 6.51875 11.3705 7C11.3705 7.48125 10.9768 7.875 10.4955 7.875Z" fill="#333333"/>
</svg>
